<?xml version="1.0" standalone="yes"?>

<svg version="1.1" viewBox="0.0 0.0 960.0 720.0" fill="none" stroke="none" stroke-linecap="square" stroke-miterlimit="10" xmlns="http://www.w3.org/2000/svg" xmlns:xlink="http://www.w3.org/1999/xlink"><clipPath id="p.0"><path d="m0 0l960.0 0l0 720.0l-960.0 0l0 -720.0z" clip-rule="nonzero"></path></clipPath><g clip-path="url(#p.0)"><path fill="#000000" fill-opacity="0.0" d="m0 0l960.0 0l0 720.0l-960.0 0z" fill-rule="nonzero"></path><path fill="#6d9eeb" d="m0 0l960.00006 0l0 720.0l-960.00006 0z" fill-rule="nonzero"></path><path stroke="#000000" stroke-width="2.0" stroke-linejoin="round" stroke-linecap="butt" d="m0 0l960.00006 0l0 720.0l-960.00006 0z" fill-rule="nonzero"></path><path fill="#000000" fill-opacity="0.0" d="m42.23622 625.9764l0 -750.9292l123.779526 0l0 750.9292z" fill-rule="nonzero"></path><path fill="#000000" d="m128.03621 610.8045l-57.265617 0l0 -19.734375q0 -6.671875 0.8125 -10.1875q1.140625 -4.921875 4.109375 -8.40625q3.828125 -4.53125 9.78125 -6.765625q5.953125 -2.25 13.609375 -2.25q6.53125 0 11.578125 1.53125q5.03125 1.515625 8.328125 3.90625q3.296875 2.375 5.203125 5.203125q1.890625 2.828125 2.875 6.84375q0.9687424 4.0 0.9687424 9.1875l0 20.671875zm-6.7656174 -7.578125l0 -12.234375q0 -5.65625 -1.046875 -8.875q-1.0625 -3.234375 -2.96875 -5.140625q-2.703125 -2.703125 -7.25 -4.203125q-4.546875 -1.5 -11.03125 -1.5q-8.984375 0 -13.8125 2.953125q-4.828125 2.9375 -6.46875 7.15625q-1.171875 3.046875 -1.171875 9.8125l0 12.03125l43.75 0zm-13.984375 -46.679688q-11.515625 0 -17.0625 -6.40625q-4.609375 -5.359375 -4.609375 -13.046875q0 -8.5625 5.609375 -13.984375q5.59375 -5.4375 15.484375 -5.4375q8.0 0 12.59375 2.40625q4.59375 2.40625 7.140625 7.0q2.5312424 4.578125 2.5312424 10.015625q0 8.703125 -5.5781174 14.078125q-5.59375 5.375 -16.109375 5.375zm0 -7.234375q7.96875 0 11.9375 -3.46875q3.96875 -3.484375 3.96875 -8.75q0 -5.234375 -3.984375 -8.703125q-3.984375 -3.484375 -12.15625 -3.484375q-7.6875 0 -11.65625 3.5q-3.96875 3.484375 -3.96875 8.6875q0 5.265625 3.953125 8.75q3.9375 3.46875 11.90625 3.46875zm20.749992 -39.882812l-41.484367 0l0 -6.28125l5.8125 0q-3.046875 -1.953125 -4.890625 -5.1875q-1.859375 -3.25 -1.859375 -7.390625q0 -4.609375 1.921875 -7.5625q1.90625 -2.953125 5.34375 -4.15625q-7.265625 -4.921875 -7.265625 -12.8125q0 -6.171875 3.421875 -9.484375q3.40625 -3.328125 10.515625 -3.328125l28.484367 0l0 6.984375l-26.140617 0q-4.21875 0 -6.0625 0.6875q-1.859375 0.6875 -2.984375 2.484375q-1.140625 1.796875 -1.140625 4.21875q0 4.375 2.90625 7.265625q2.90625 2.890625 9.3125 2.890625l24.109367 0l0 7.03125l-26.953117 0q-4.6875 0 -7.03125 1.71875q-2.34375 1.71875 -2.34375 5.625q0 2.96875 1.5625 5.484375q1.5625 2.515625 4.578125 3.65625q3.0 1.125 8.65625 1.125l21.531242 0l0 7.03125zm0 -106.13281l-57.265617 22.1875l0 -8.203125l41.59375 -14.875q5.0 -1.796875 9.375 -3.015625q-4.6875 -1.328125 -9.375 -3.078125l-41.59375 -15.46875l0 -7.734375l57.265617 22.421875l0 7.765625zm-5.1249924 -63.15625q3.328125 3.90625 4.703125 7.515625q1.3593674 3.609375 1.3593674 7.75q0 6.84375 -3.3437424 10.515625q-3.34375 3.671875 -8.53125 3.671875q-3.046875 0 -5.5625 -1.390625q-2.53125 -1.390625 -4.046875 -3.625q-1.53125 -2.25 -2.3125 -5.0625q-0.546875 -2.078125 -1.046875 -6.25q-1.015625 -8.515625 -2.421875 -12.546875q-1.453125 -0.03125 -1.84375 -0.03125q-4.296875 0 -6.046875 1.984375q-2.390625 2.703125 -2.390625 8.015625q0 4.953125 1.75 7.328125q1.734375 2.359375 6.140625 3.484375l-0.9375 6.875q-4.40625 -0.9375 -7.125 -3.078125q-2.71875 -2.15625 -4.171875 -6.21875q-1.46875 -4.0625 -1.46875 -9.40625q0 -5.3125 1.25 -8.625q1.25 -3.328125 3.140625 -4.890625q1.890625 -1.5625 4.78125 -2.1875q1.796875 -0.359375 6.484375 -0.359375l9.375 0q9.8125 0 12.40625 -0.4375q2.59375 -0.453125 4.9843674 -1.78125l0 7.34375q-2.1874924 1.09375 -5.1249924 1.40625zm-15.703125 0.578125q1.5625 3.828125 2.65625 11.484375q0.625 4.34375 1.40625 6.140625q0.78125 1.796875 2.296875 2.78125q1.5 0.96875 3.328125 0.96875q2.8125 0 4.6875 -2.125q1.875 -2.140625 1.875 -6.234375q0 -4.0625 -1.765625 -7.21875q-1.78125 -3.171875 -4.875 -4.65625q-2.375 -1.140625 -7.03125 -1.140625l-2.578125 0zm5.625 -45.070312l0.90625 -6.921875q7.140625 1.140625 11.1875 5.8125q4.0468674 4.65625 4.0468674 11.453125q0 8.515625 -5.5624924 13.703125q-5.578125 5.171875 -15.96875 5.171875q-6.71875 0 -11.75 -2.21875q-5.046875 -2.234375 -7.5625 -6.78125q-2.515625 -4.5625 -2.515625 -9.90625q0 -6.765625 3.421875 -11.0625q3.40625 -4.296875 9.703125 -5.5l1.046875 6.828125q-4.171875 0.984375 -6.28125 3.46875q-2.109375 2.46875 -2.109375 5.984375q0 5.3125 3.8125 8.640625q3.796875 3.3125 12.046875 3.3125q8.359375 0 12.15625 -3.203125q3.78125 -3.203125 3.78125 -8.359375q0 -4.140625 -2.53125 -6.90625q-2.546875 -2.78125 -7.828125 -3.515625zm0 -40.0l0.90625 -6.921875q7.140625 1.140625 11.1875 5.8125q4.0468674 4.65625 4.0468674 11.453125q0 8.515625 -5.5624924 13.703125q-5.578125 5.171875 -15.96875 5.171875q-6.71875 0 -11.75 -2.21875q-5.046875 -2.234375 -7.5625 -6.78125q-2.515625 -4.5625 -2.515625 -9.90625q0 -6.765625 3.421875 -11.0625q3.40625 -4.296875 9.703125 -5.5l1.046875 6.828125q-4.171875 0.984375 -6.28125 3.46875q-2.109375 2.46875 -2.109375 5.984375q0 5.3125 3.8125 8.640625q3.796875 3.3125 12.046875 3.3125q8.359375 0 12.15625 -3.203125q3.78125 -3.203125 3.78125 -8.359375q0 -4.140625 -2.53125 -6.90625q-2.546875 -2.78125 -7.828125 -3.515625zm15.203117 -12.9375l-57.265617 0l0 -7.03125l20.546875 0q-5.703125 -4.921875 -5.703125 -12.421875q0 -4.609375 1.8125 -8.0q1.8125 -3.40625 5.015625 -4.859375q3.203125 -1.46875 9.296875 -1.46875l26.296867 0l0 7.03125l-26.296867 0q-5.265625 0 -7.671875 2.28125q-2.40625 2.28125 -2.40625 6.46875q0 3.125 1.625 5.875q1.625 2.75 4.40625 3.921875q2.765625 1.171875 7.640625 1.171875l22.703117 0l0 7.03125zm-49.187492 -44.523438l-8.078125 0l0 -7.03125l8.078125 0l0 7.03125zm49.187492 0l-41.484367 0l0 -7.03125l41.484367 0l0 7.03125zm-5.1249924 -44.804688q3.328125 3.90625 4.703125 7.515625q1.3593674 3.609375 1.3593674 7.75q0 6.84375 -3.3437424 10.515625q-3.34375 3.671875 -8.53125 3.671875q-3.046875 0 -5.5625 -1.390625q-2.53125 -1.390625 -4.046875 -3.625q-1.53125 -2.25 -2.3125 -5.0625q-0.546875 -2.078125 -1.046875 -6.25q-1.015625 -8.515625 -2.421875 -12.546875q-1.453125 -0.03125 -1.84375 -0.03125q-4.296875 0 -6.046875 1.984375q-2.390625 2.703125 -2.390625 8.015625q0 4.953125 1.75 7.328125q1.734375 2.359375 6.140625 3.484375l-0.9375 6.875q-4.40625 -0.9375 -7.125 -3.078125q-2.71875 -2.15625 -4.171875 -6.21875q-1.46875 -4.0625 -1.46875 -9.40625q0 -5.3125 1.25 -8.625q1.25 -3.328125 3.140625 -4.890625q1.890625 -1.5625 4.78125 -2.1875q1.796875 -0.359375 6.484375 -0.359375l9.375 0q9.8125 0 12.40625 -0.4375q2.59375 -0.453125 4.9843674 -1.78125l0 7.34375q-2.1874924 1.09375 -5.1249924 1.40625zm-15.703125 0.578125q1.5625 3.828125 2.65625 11.484375q0.625 4.34375 1.40625 6.140625q0.78125 1.796875 2.296875 2.78125q1.5 0.96875 3.328125 0.96875q2.8125 0 4.6875 -2.125q1.875 -2.140625 1.875 -6.234375q0 -4.0625 -1.765625 -7.21875q-1.78125 -3.171875 -4.875 -4.65625q-2.375 -1.140625 -7.03125 -1.140625l-2.578125 0zm20.828117 -18.007812l-41.484367 0l0 -6.328125l5.890625 0q-6.828125 -4.5625 -6.828125 -13.203125q0 -3.75 1.34375 -6.890625q1.34375 -3.140625 3.53125 -4.703125q2.1875 -1.5625 5.203125 -2.1875q1.953125 -0.390625 6.828125 -0.390625l25.515617 0l0 7.03125l-25.234367 0q-4.296875 0 -6.421875 0.828125q-2.140625 0.8125 -3.40625 2.90625q-1.265625 2.078125 -1.265625 4.890625q0 4.5 2.859375 7.765625q2.84375 3.25 10.8125 3.25l22.656242 0l0 7.03125zm-20.749992 -41.867188q-11.515625 0 -17.0625 -6.40625q-4.609375 -5.359375 -4.609375 -13.046875q0 -8.5625 5.609375 -13.984375q5.59375 -5.4375 15.484375 -5.4375q8.0 0 12.59375 2.40625q4.59375 2.40625 7.140625 7.0q2.5312424 4.578125 2.5312424 10.015625q0 8.703125 -5.5781174 14.078125q-5.59375 5.375 -16.109375 5.375zm0 -7.234375q7.96875 0 11.9375 -3.46875q3.96875 -3.484375 3.96875 -8.75q0 -5.234375 -3.984375 -8.703125q-3.984375 -3.484375 -12.15625 -3.484375q-7.6875 0 -11.65625 3.5q-3.96875 3.484375 -3.96875 8.6875q0 5.265625 3.953125 8.75q3.9375 3.46875 11.90625 3.46875z" fill-rule="nonzero"></path><path fill="#ff9900" d="m384.99344 201.13124l-40.34146 16.054916l0 -32.109848zm-29.287079 -79.109436l-18.376068 43.279663l-20.288544 -22.704788zm-70.68143 -32.764587l14.3463745 45.145813l-28.692749 0zm-70.69069 32.764587l38.67389 20.574875l-20.288559 22.704788zm-29.277817 79.109436l40.341446 -16.054932l0 32.109848zm29.277817 79.099075l18.38533 -43.269318l20.288559 22.704773zm70.69069 32.774933l-14.3463745 -45.145813l28.692749 0zm70.68143 -32.774933l-38.66461 -20.564545l20.288544 -22.704773zm-120.66568 -79.099075c0 -30.893158 22.378723 -55.93701 49.984253 -55.93701c27.60553 0 49.984253 25.043854 49.984253 55.93701c0 30.893143 -22.378723 55.936996 -49.984253 55.936996c-27.60553 0 -49.984253 -25.043854 -49.984253 -55.936996z" fill-rule="nonzero"></path><path stroke="#000000" stroke-width="2.0" stroke-linejoin="round" stroke-linecap="butt" d="m384.99344 201.13124l-40.34146 16.054916l0 -32.109848zm-29.287079 -79.109436l-18.376068 43.279663l-20.288544 -22.704788zm-70.68143 -32.764587l14.3463745 45.145813l-28.692749 0zm-70.69069 32.764587l38.67389 20.574875l-20.288559 22.704788zm-29.277817 79.109436l40.341446 -16.054932l0 32.109848zm29.277817 79.099075l18.38533 -43.269318l20.288559 22.704773zm70.69069 32.774933l-14.3463745 -45.145813l28.692749 0zm70.68143 -32.774933l-38.66461 -20.564545l20.288544 -22.704773zm-120.66568 -79.099075c0 -30.893158 22.378723 -55.93701 49.984253 -55.93701c27.60553 0 49.984253 25.043854 49.984253 55.93701c0 30.893143 -22.378723 55.936996 -49.984253 55.936996c-27.60553 0 -49.984253 -25.043854 -49.984253 -55.936996z" fill-rule="nonzero"></path><path fill="#ff9900" d="m926.94354 201.13124l-40.34143 16.054916l0 -32.109848zm-29.287048 -79.109436l-18.376038 43.279663l-20.288574 -22.704788zm-70.68146 -32.764587l14.3463745 45.145813l-28.692688 0zm-70.690674 32.764587l38.67389 20.574875l-20.288574 22.704788zm-29.277771 79.109436l40.34143 -16.054932l0 32.109848zm29.277771 79.099075l18.385315 -43.269318l20.288574 22.704773zm70.690674 32.774933l-14.346313 -45.145813l28.692688 0zm70.68146 -32.774933l-38.66461 -20.564545l20.288574 -22.704773zm-120.66571 -79.099075c0 -30.893158 22.378723 -55.93701 49.984253 -55.93701c27.60559 0 49.984253 25.043854 49.984253 55.93701c0 30.893143 -22.378662 55.936996 -49.984253 55.936996c-27.60553 0 -49.984253 -25.043854 -49.984253 -55.936996z" fill-rule="nonzero"></path><path stroke="#000000" stroke-width="2.0" stroke-linejoin="round" stroke-linecap="butt" d="m926.94354 201.13124l-40.34143 16.054916l0 -32.109848zm-29.287048 -79.109436l-18.376038 43.279663l-20.288574 -22.704788zm-70.68146 -32.764587l14.3463745 45.145813l-28.692688 0zm-70.690674 32.764587l38.67389 20.574875l-20.288574 22.704788zm-29.277771 79.109436l40.34143 -16.054932l0 32.109848zm29.277771 79.099075l18.385315 -43.269318l20.288574 22.704773zm70.690674 32.774933l-14.346313 -45.145813l28.692688 0zm70.68146 -32.774933l-38.66461 -20.564545l20.288574 -22.704773zm-120.66571 -79.099075c0 -30.893158 22.378723 -55.93701 49.984253 -55.93701c27.60559 0 49.984253 25.043854 49.984253 55.93701c0 30.893143 -22.378662 55.936996 -49.984253 55.936996c-27.60553 0 -49.984253 -25.043854 -49.984253 -55.936996z" fill-rule="nonzero"></path><path fill="#fff2cc" d="m187.50362 448.4889l0 0c-1.9190979 -19.871185 4.3816986 -39.54248 16.228699 -50.666565c11.847015 -11.124115 27.162552 -11.750153 39.447662 -1.6124268l0 0c4.351761 -11.553925 12.316742 -19.531128 21.485703 -21.518646c9.168976 -1.9874878 18.464996 2.248108 25.076172 11.425659l0 0c3.7071533 -10.475525 10.986176 -17.513733 19.25412 -18.617126c8.267944 -1.1033936 16.354706 3.8842468 21.390656 13.192993l0 0c6.6974792 -11.104065 17.353363 -15.779327 27.35675 -12.002777c10.003418 3.7765198 17.557648 15.326538 19.393951 29.652313l0 0c8.205536 3.153595 15.040619 11.170441 18.739197 21.979248c3.6986084 10.808838 3.8979187 23.349304 0.54644775 34.381348l0 0c8.080078 14.81723 9.970215 34.561035 4.9650574 51.863373c-5.005188 17.302307 -16.153717 29.56366 -29.285156 32.208374c-0.092559814 16.23883 -6.41333 31.139404 -16.526031 38.958374c-10.112732 7.8189697 -22.438232 7.335388 -32.22574 -1.2644043c-4.1689453 19.448853 -15.903168 33.759094 -30.133057 36.74823c-14.229858 2.9891357 -28.404388 -5.878723 -36.39966 -22.772339c-9.800537 8.326965 -21.560364 10.725647 -32.62671 6.6550903c-11.06633 -4.0706177 -20.507004 -14.267578 -26.192398 -28.29071l0 0c-10.014908 1.6512451 -19.697952 -5.659607 -24.243454 -18.30426c-4.5455017 -12.644653 -2.985855 -27.931335 3.9049225 -38.273315l0 0c-8.933563 -7.408539 -13.492004 -22.109467 -11.298279 -36.43686c2.1937256 -14.327423 10.642517 -25.034637 20.940659 -26.5383z" fill-rule="nonzero"></path><path fill="#000000" fill-opacity="0.0" d="m177.66328 512.22986l0 0c4.2157745 3.4960938 9.085983 5.0820312 13.956711 4.5448m6.3796234 52.034058c2.0946045 -0.3453369 4.147705 -1.0766602 6.106369 -2.175171m52.70981 23.809937c-1.4732056 -3.112793 -2.7066498 -6.439087 -3.679306 -9.922241m70.214584 -4.0542603l0 0c0.7600403 -3.5457764 1.2525024 -7.1951904 1.4691467 -10.887329m47.28076 -26.805298c0.09854126 -17.288757 -6.870758 -33.1185 -17.914368 -40.68991m42.234253 -43.379974c-1.7884827 5.887146 -4.518799 11.109528 -7.9768677 15.257751m-11.307129 -71.6199l0 0c0.30471802 2.3773499 0.44577026 4.790436 0.42114258 7.205841m-47.17105 -24.854675l0 0c-1.6706848 2.769928 -3.0471191 5.865265 -4.086426 9.189636m-36.558716 -3.766693l0 0c-0.8903198 2.5158997 -1.5551758 5.178131 -1.9792175 7.925415m-44.583344 2.1677856l0 0c2.5995178 2.1451416 5.004425 4.7270203 7.1618958 7.688965m-62.83754 44.5903l0 0c0.2645111 2.738739 0.6824341 5.443756 1.2498779 8.089661" fill-rule="nonzero"></path><path stroke="#000000" stroke-width="2.0" stroke-linejoin="round" stroke-linecap="butt" d="m187.50362 448.4889l0 0c-1.9190979 -19.871185 4.3816986 -39.54248 16.228699 -50.666565c11.847015 -11.124115 27.162552 -11.750153 39.447662 -1.6124268l0 0c4.351761 -11.553925 12.316742 -19.531128 21.485703 -21.518646c9.168976 -1.9874878 18.464996 2.248108 25.076172 11.425659l0 0c3.7071533 -10.475525 10.986176 -17.513733 19.25412 -18.617126c8.267944 -1.1033936 16.354706 3.8842468 21.390656 13.192993l0 0c6.6974792 -11.104065 17.353363 -15.779327 27.35675 -12.002777c10.003418 3.7765198 17.557648 15.326538 19.393951 29.652313l0 0c8.205536 3.153595 15.040619 11.170441 18.739197 21.979248c3.6986084 10.808838 3.8979187 23.349304 0.54644775 34.381348l0 0c8.080078 14.81723 9.970215 34.561035 4.9650574 51.863373c-5.005188 17.302307 -16.153717 29.56366 -29.285156 32.208374c-0.092559814 16.23883 -6.41333 31.139404 -16.526031 38.958374c-10.112732 7.8189697 -22.438232 7.335388 -32.22574 -1.2644043c-4.1689453 19.448853 -15.903168 33.759094 -30.133057 36.74823c-14.229858 2.9891357 -28.404388 -5.878723 -36.39966 -22.772339c-9.800537 8.326965 -21.560364 10.725647 -32.62671 6.6550903c-11.06633 -4.0706177 -20.507004 -14.267578 -26.192398 -28.29071l0 0c-10.014908 1.6512451 -19.697952 -5.659607 -24.243454 -18.30426c-4.5455017 -12.644653 -2.985855 -27.931335 3.9049225 -38.273315l0 0c-8.933563 -7.408539 -13.492004 -22.109467 -11.298279 -36.43686c2.1937256 -14.327423 10.642517 -25.034637 20.940659 -26.5383z" fill-rule="nonzero"></path><path stroke="#000000" stroke-width="2.0" stroke-linejoin="round" stroke-linecap="butt" d="m177.66328 512.22986l0 0c4.2157745 3.4960938 9.085983 5.0820312 13.956711 4.5448m6.3796234 52.034058c2.0946045 -0.3453369 4.147705 -1.0766602 6.106369 -2.175171m52.70981 23.809937c-1.4732056 -3.112793 -2.7066498 -6.439087 -3.679306 -9.922241m70.214584 -4.0542603l0 0c0.7600403 -3.5457764 1.2525024 -7.1951904 1.4691467 -10.887329m47.28076 -26.805298c0.09854126 -17.288757 -6.870758 -33.1185 -17.914368 -40.68991m42.234253 -43.379974c-1.7884827 5.887146 -4.518799 11.109528 -7.9768677 15.257751m-11.307129 -71.6199l0 0c0.30471802 2.3773499 0.44577026 4.790436 0.42114258 7.205841m-47.17105 -24.854675l0 0c-1.6706848 2.769928 -3.0471191 5.865265 -4.086426 9.189636m-36.558716 -3.766693l0 0c-0.8903198 2.5158997 -1.5551758 5.178131 -1.9792175 7.925415m-44.583344 2.1677856l0 0c2.5995178 2.1451416 5.004425 4.7270203 7.1618958 7.688965m-62.83754 44.5903l0 0c0.2645111 2.738739 0.6824341 5.443756 1.2498779 8.089661" fill-rule="nonzero"></path><path fill="#fff2cc" d="m458.4787 448.4889l0 0c-1.9190979 -19.871185 4.3816833 -39.54248 16.228699 -50.666565c11.847015 -11.124115 27.162537 -11.750153 39.44763 -1.6124268l0 0c4.3517456 -11.553925 12.316772 -19.531128 21.485718 -21.518646c9.168945 -1.9874878 18.464966 2.248108 25.076172 11.425659l0 0c3.7071533 -10.475525 10.986206 -17.513733 19.25415 -18.617126c8.267944 -1.1033936 16.354675 3.8842468 21.390625 13.192993l0 0c6.69751 -11.104065 17.353333 -15.779327 27.35675 -12.002777c10.003418 3.7765198 17.557617 15.326538 19.39392 29.652313l0 0c8.205566 3.153595 15.040649 11.170441 18.739258 21.979248c3.6985474 10.808838 3.8978882 23.349304 0.54644775 34.381348l0 0c8.080078 14.81723 9.970215 34.561035 4.965027 51.863373c-5.005188 17.302307 -16.153687 29.56366 -29.285156 32.208374c-0.0925293 16.23883 -6.41333 31.139404 -16.526062 38.958374c-10.112671 7.8189697 -22.438171 7.335388 -32.225708 -1.2644043c-4.1689453 19.448853 -15.903198 33.759094 -30.133057 36.74823c-14.229858 2.9891357 -28.404419 -5.878723 -36.39966 -22.772339c-9.800537 8.326965 -21.560364 10.725647 -32.62671 6.6550903c-11.066345 -4.0706177 -20.507019 -14.267578 -26.192383 -28.29071l0 0c-10.014923 1.6512451 -19.697968 -5.659607 -24.24347 -18.30426c-4.5455017 -12.644653 -2.9858398 -27.931335 3.9049072 -38.273315l0 0c-8.933563 -7.408539 -13.492004 -22.109467 -11.298279 -36.43686c2.1937256 -14.327423 10.642517 -25.034637 20.940674 -26.5383z" fill-rule="nonzero"></path><path fill="#000000" fill-opacity="0.0" d="m448.63834 512.22986l0 0c4.21579 3.4960938 9.085999 5.0820312 13.956726 4.5448m6.3796387 52.034058c2.094574 -0.3453369 4.1476746 -1.0766602 6.1063538 -2.175171m52.709778 23.809937c-1.4732056 -3.112793 -2.706604 -6.439087 -3.6792603 -9.922241m70.21454 -4.0542603l0 0c0.7600708 -3.5457764 1.2525635 -7.1951904 1.4691772 -10.887329m47.28076 -26.805298c0.09857178 -17.288757 -6.8707275 -33.1185 -17.914368 -40.68991m42.234253 -43.379974c-1.7885132 5.887146 -4.518799 11.109528 -7.9768677 15.257751m-11.307129 -71.6199l0 0c0.30474854 2.3773499 0.44573975 4.790436 0.42114258 7.205841m-47.17102 -24.854675l0 0c-1.6707153 2.769928 -3.0471802 5.865265 -4.086487 9.189636m-36.558655 -3.766693l0 0c-0.89038086 2.5158997 -1.5552368 5.178131 -1.979248 7.925415m-44.583374 2.1677856l0 0c2.5995483 2.1451416 5.0044556 4.7270203 7.1619263 7.688965m-62.837524 44.5903l0 0c0.26449585 2.738739 0.68240356 5.443756 1.2498474 8.089661" fill-rule="nonzero"></path><path stroke="#000000" stroke-width="2.0" stroke-linejoin="round" stroke-linecap="butt" d="m458.4787 448.4889l0 0c-1.9190979 -19.871185 4.3816833 -39.54248 16.228699 -50.666565c11.847015 -11.124115 27.162537 -11.750153 39.44763 -1.6124268l0 0c4.3517456 -11.553925 12.316772 -19.531128 21.485718 -21.518646c9.168945 -1.9874878 18.464966 2.248108 25.076172 11.425659l0 0c3.7071533 -10.475525 10.986206 -17.513733 19.25415 -18.617126c8.267944 -1.1033936 16.354675 3.8842468 21.390625 13.192993l0 0c6.69751 -11.104065 17.353333 -15.779327 27.35675 -12.002777c10.003418 3.7765198 17.557617 15.326538 19.39392 29.652313l0 0c8.205566 3.153595 15.040649 11.170441 18.739258 21.979248c3.6985474 10.808838 3.8978882 23.349304 0.54644775 34.381348l0 0c8.080078 14.81723 9.970215 34.561035 4.965027 51.863373c-5.005188 17.302307 -16.153687 29.56366 -29.285156 32.208374c-0.0925293 16.23883 -6.41333 31.139404 -16.526062 38.958374c-10.112671 7.8189697 -22.438171 7.335388 -32.225708 -1.2644043c-4.1689453 19.448853 -15.903198 33.759094 -30.133057 36.74823c-14.229858 2.9891357 -28.404419 -5.878723 -36.39966 -22.772339c-9.800537 8.326965 -21.560364 10.725647 -32.62671 6.6550903c-11.066345 -4.0706177 -20.507019 -14.267578 -26.192383 -28.29071l0 0c-10.014923 1.6512451 -19.697968 -5.659607 -24.24347 -18.30426c-4.5455017 -12.644653 -2.9858398 -27.931335 3.9049072 -38.273315l0 0c-8.933563 -7.408539 -13.492004 -22.109467 -11.298279 -36.43686c2.1937256 -14.327423 10.642517 -25.034637 20.940674 -26.5383z" fill-rule="nonzero"></path><path stroke="#000000" stroke-width="2.0" stroke-linejoin="round" stroke-linecap="butt" d="m448.63834 512.22986l0 0c4.21579 3.4960938 9.085999 5.0820312 13.956726 4.5448m6.3796387 52.034058c2.094574 -0.3453369 4.1476746 -1.0766602 6.1063538 -2.175171m52.709778 23.809937c-1.4732056 -3.112793 -2.706604 -6.439087 -3.6792603 -9.922241m70.21454 -4.0542603l0 0c0.7600708 -3.5457764 1.2525635 -7.1951904 1.4691772 -10.887329m47.28076 -26.805298c0.09857178 -17.288757 -6.8707275 -33.1185 -17.914368 -40.68991m42.234253 -43.379974c-1.7885132 5.887146 -4.518799 11.109528 -7.9768677 15.257751m-11.307129 -71.6199l0 0c0.30474854 2.3773499 0.44573975 4.790436 0.42114258 7.205841m-47.17102 -24.854675l0 0c-1.6707153 2.769928 -3.0471802 5.865265 -4.086487 9.189636m-36.558655 -3.766693l0 0c-0.89038086 2.5158997 -1.5552368 5.178131 -1.979248 7.925415m-44.583374 2.1677856l0 0c2.5995483 2.1451416 5.0044556 4.7270203 7.1619263 7.688965m-62.837524 44.5903l0 0c0.26449585 2.738739 0.68240356 5.443756 1.2498474 8.089661" fill-rule="nonzero"></path><path fill="#fce5cd" d="m729.45374 448.4889l0 0c-1.9190674 -19.871185 4.381714 -39.54248 16.228699 -50.666565c11.847046 -11.124115 27.162537 -11.750153 39.447693 -1.6124268l0 0c4.3517456 -11.553925 12.316711 -19.531128 21.485718 -21.518646c9.168945 -1.9874878 18.464966 2.248108 25.076172 11.425659l0 0c3.7070923 -10.475525 10.986145 -17.513733 19.25409 -18.617126c8.267944 -1.1033936 16.354675 3.8842468 21.390625 13.192993l0 0c6.69751 -11.104065 17.353394 -15.779327 27.356812 -12.002777c10.003357 3.7765198 17.557617 15.326538 19.39392 29.652313l0 0c8.205566 3.153595 15.040588 11.170441 18.739197 21.979248c3.6986084 10.808838 3.8978882 23.349304 0.54644775 34.381348l0 0c8.080078 14.81723 9.970215 34.561035 4.965027 51.863373c-5.005188 17.302307 -16.153687 29.56366 -29.285095 32.208374c-0.09259033 16.23883 -6.413391 31.139404 -16.526062 38.958374c-10.112732 7.8189697 -22.438232 7.335388 -32.225708 -1.2644043c-4.1690063 19.448853 -15.903198 33.759094 -30.133057 36.74823c-14.229919 2.9891357 -28.404419 -5.878723 -36.39972 -22.772339c-9.800537 8.326965 -21.560364 10.725647 -32.626648 6.6550903c-11.066345 -4.0706177 -20.507019 -14.267578 -26.192444 -28.29071l0 0c-10.014893 1.6512451 -19.697937 -5.659607 -24.24347 -18.30426c-4.545471 -12.644653 -2.9858398 -27.931335 3.9049683 -38.273315l0 0c-8.933594 -7.408539 -13.492004 -22.109467 -11.298279 -36.43686c2.1937256 -14.327423 10.642517 -25.034637 20.940613 -26.5383z" fill-rule="nonzero"></path><path fill="#000000" fill-opacity="0.0" d="m719.6134 512.22986l0 0c4.2157593 3.4960938 9.085999 5.0820312 13.956726 4.5448m6.3796387 52.034058c2.0946045 -0.3453369 4.147705 -1.0766602 6.1063232 -2.175171m52.70984 23.809937c-1.4732056 -3.112793 -2.706665 -6.439087 -3.6793213 -9.922241m70.2146 -4.0542603l0 0c0.7600708 -3.5457764 1.2525024 -7.1951904 1.4691162 -10.887329m47.280823 -26.805298c0.09851074 -17.288757 -6.8707886 -33.1185 -17.914429 -40.68991m42.234253 -43.379974c-1.7884521 5.887146 -4.518799 11.109528 -7.9768677 15.257751m-11.307129 -71.6199l0 0c0.30474854 2.3773499 0.44580078 4.790436 0.42114258 7.205841m-47.17102 -24.854675l0 0c-1.6707153 2.769928 -3.0471191 5.865265 -4.086426 9.189636m-36.558716 -3.766693l0 0c-0.8903198 2.5158997 -1.5551758 5.178131 -1.979187 7.925415m-44.583374 2.1677856l0 0c2.5994873 2.1451416 5.0043945 4.7270203 7.161865 7.688965m-62.837524 44.5903l0 0c0.26452637 2.738739 0.6824341 5.443756 1.2498779 8.089661" fill-rule="nonzero"></path><path stroke="#000000" stroke-width="2.0" stroke-linejoin="round" stroke-linecap="butt" d="m729.45374 448.4889l0 0c-1.9190674 -19.871185 4.381714 -39.54248 16.228699 -50.666565c11.847046 -11.124115 27.162537 -11.750153 39.447693 -1.6124268l0 0c4.3517456 -11.553925 12.316711 -19.531128 21.485718 -21.518646c9.168945 -1.9874878 18.464966 2.248108 25.076172 11.425659l0 0c3.7070923 -10.475525 10.986145 -17.513733 19.25409 -18.617126c8.267944 -1.1033936 16.354675 3.8842468 21.390625 13.192993l0 0c6.69751 -11.104065 17.353394 -15.779327 27.356812 -12.002777c10.003357 3.7765198 17.557617 15.326538 19.39392 29.652313l0 0c8.205566 3.153595 15.040588 11.170441 18.739197 21.979248c3.6986084 10.808838 3.8978882 23.349304 0.54644775 34.381348l0 0c8.080078 14.81723 9.970215 34.561035 4.965027 51.863373c-5.005188 17.302307 -16.153687 29.56366 -29.285095 32.208374c-0.09259033 16.23883 -6.413391 31.139404 -16.526062 38.958374c-10.112732 7.8189697 -22.438232 7.335388 -32.225708 -1.2644043c-4.1690063 19.448853 -15.903198 33.759094 -30.133057 36.74823c-14.229919 2.9891357 -28.404419 -5.878723 -36.39972 -22.772339c-9.800537 8.326965 -21.560364 10.725647 -32.626648 6.6550903c-11.066345 -4.0706177 -20.507019 -14.267578 -26.192444 -28.29071l0 0c-10.014893 1.6512451 -19.697937 -5.659607 -24.24347 -18.30426c-4.545471 -12.644653 -2.9858398 -27.931335 3.9049683 -38.273315l0 0c-8.933594 -7.408539 -13.492004 -22.109467 -11.298279 -36.43686c2.1937256 -14.327423 10.642517 -25.034637 20.940613 -26.5383z" fill-rule="nonzero"></path><path stroke="#000000" stroke-width="2.0" stroke-linejoin="round" stroke-linecap="butt" d="m719.6134 512.22986l0 0c4.2157593 3.4960938 9.085999 5.0820312 13.956726 4.5448m6.3796387 52.034058c2.0946045 -0.3453369 4.147705 -1.0766602 6.1063232 -2.175171m52.70984 23.809937c-1.4732056 -3.112793 -2.706665 -6.439087 -3.6793213 -9.922241m70.2146 -4.0542603l0 0c0.7600708 -3.5457764 1.2525024 -7.1951904 1.4691162 -10.887329m47.280823 -26.805298c0.09851074 -17.288757 -6.8707886 -33.1185 -17.914429 -40.68991m42.234253 -43.379974c-1.7884521 5.887146 -4.518799 11.109528 -7.9768677 15.257751m-11.307129 -71.6199l0 0c0.30474854 2.3773499 0.44580078 4.790436 0.42114258 7.205841m-47.17102 -24.854675l0 0c-1.6707153 2.769928 -3.0471191 5.865265 -4.086426 9.189636m-36.558716 -3.766693l0 0c-0.8903198 2.5158997 -1.5551758 5.178131 -1.979187 7.925415m-44.583374 2.1677856l0 0c2.5994873 2.1451416 5.0043945 4.7270203 7.161865 7.688965m-62.837524 44.5903l0 0c0.26452637 2.738739 0.6824341 5.443756 1.2498779 8.089661" fill-rule="nonzero"></path></g></svg>

